<svg width="18" height="20" viewBox="0 0 18 20" fill="none" xmlns="http://www.w3.org/2000/svg">
<path d="M10.8751 16.5265C11.4376 15.9238 11.495 14.9951 10.9983 14.3381C10.7728 14.0402 10.49 13.7861 10.2224 13.5007C9.89521 13.749 9.58684 13.9828 9.25081 14.2385C9.50961 14.4889 9.74859 14.7096 9.97504 14.9418C10.1978 15.1699 10.2234 15.4923 10.0147 15.7172C9.74598 16.0073 9.45117 16.2734 9.16002 16.5573C8.77286 16.1847 8.38152 15.8075 8.00218 15.4427C7.4444 15.9979 6.89705 16.5432 6.31787 17.1198C6.3664 17.1547 6.43005 17.1902 6.48015 17.2387C7.22473 17.9567 7.97088 18.6731 8.70868 19.3979C8.96487 19.6494 9.22055 19.8925 9.57431 20C9.73085 20 9.88686 20 10.0434 20C10.2046 19.9202 10.3826 19.8628 10.524 19.7574C11.0833 19.3389 11.1428 18.5286 10.6617 18.0203C10.4582 17.8054 10.2474 17.5977 10.011 17.3582C10.3059 17.0775 10.6054 16.8161 10.8751 16.5265Z" fill="#E00E3D"/>
<path d="M4.22031 9.13649C5.64738 10.5636 7.05463 11.9713 8.47022 13.3874C10.1723 11.9572 12.1034 10.9554 14.3116 10.5495C11.879 8.11692 9.45952 5.6969 7.03167 3.26852C6.62207 5.47566 5.65364 7.42609 4.22031 9.13649Z" fill="#E00E3D"/>
<path d="M7.54458 14.1983C6.15925 12.814 4.78383 11.4396 3.40528 10.0616C3.3865 10.0788 3.35258 10.1086 3.32023 10.1404C2.39929 11.0603 1.47625 11.9786 0.557916 12.9022C-0.186668 13.651 -0.185102 14.7086 0.557394 15.4615C0.909075 15.8184 1.26597 16.1706 1.62026 16.5249C1.79037 16.695 1.95994 16.8662 2.13161 17.0358C2.89289 17.7887 3.94428 17.7986 4.70556 17.0462C5.6359 16.1263 6.55737 15.197 7.48197 14.2719C7.50858 14.2447 7.53049 14.2145 7.54458 14.1983ZM4.6466 13.7804C4.37945 14.0543 4.10969 14.3267 3.83367 14.5917C3.64895 14.7697 3.42772 14.8171 3.18822 14.7107C2.96542 14.611 2.85585 14.4315 2.80419 14.1644C2.8788 14.0272 2.93098 13.8691 3.03273 13.7569C3.28527 13.4782 3.55764 13.2174 3.82793 12.9554C4.07942 12.7112 4.43111 12.7102 4.66434 12.9439C4.89445 13.174 4.88975 13.5315 4.6466 13.7804Z" fill="#E00E3D"/>
<path d="M11.4997 2.71962C10.7728 1.99278 10.0439 1.26698 9.31915 0.538051C9.07809 0.295422 8.79424 0.162368 8.42064 0.154541C8.00896 0.17176 7.66197 0.356993 7.43395 0.739459C7.14749 1.2195 7.23933 1.78302 7.67032 2.21402C10.2333 4.77753 12.7968 7.34 15.3603 9.903C15.3974 9.94005 15.4339 9.97657 15.4731 10.011C16.0105 10.4837 16.8323 10.3763 17.2299 9.78142C17.5529 9.29773 17.4803 8.70186 17.0353 8.25625C15.1908 6.40914 13.3447 4.56464 11.4997 2.71962Z" fill="#E00E3D"/>
<path d="M14.7723 3.52317C14.8396 3.49551 14.9914 3.47516 15.0812 3.38959C15.5195 2.97269 15.9531 2.54952 16.3643 2.10601C16.5714 1.88216 16.5208 1.53205 16.3037 1.32907C16.0882 1.12714 15.7376 1.10471 15.5211 1.31133C15.0974 1.71571 14.6836 2.13105 14.2792 2.55474C14.1128 2.72902 14.0992 2.95547 14.1968 3.17566C14.2917 3.39064 14.4707 3.49551 14.7723 3.52317Z" fill="#E00E3D"/>
<path d="M11.8013 1.77884C11.8128 2.10182 12.0611 2.33976 12.3779 2.34184C12.6925 2.34393 12.9602 2.10652 12.969 1.7898C12.9805 1.37446 12.9816 0.9586 12.9685 0.543261C12.9581 0.228105 12.6862 -0.00513199 12.3695 8.58378e-05C12.0617 0.00530366 11.8143 0.240627 11.8018 0.55161C11.7935 0.752496 11.8002 0.953904 11.8002 1.15531C11.7997 1.3635 11.794 1.57169 11.8013 1.77884Z" fill="#E00E3D"/>
<path d="M17.0849 4.68933C16.6888 4.68411 16.2923 4.68463 15.8962 4.68881C15.5639 4.69246 15.3176 4.94239 15.316 5.26851C15.3145 5.59567 15.5581 5.84925 15.8874 5.85708C16.082 5.86177 16.2771 5.85812 16.4718 5.85812C16.6732 5.85812 16.8746 5.86125 17.076 5.8576C17.4063 5.85134 17.6583 5.5988 17.6609 5.27738C17.663 4.957 17.411 4.6935 17.0849 4.68933Z" fill="#E00E3D"/>
</svg>
