<svg width="18" height="18" viewBox="0 0 18 18" fill="none" xmlns="http://www.w3.org/2000/svg">
<path d="M13.4389 10.74C13.2446 10.9282 13.1554 11.2005 13.1996 11.4675L13.8664 15.1575C13.9226 15.4702 13.7906 15.7868 13.5289 15.9675C13.2724 16.155 12.9311 16.1775 12.6514 16.0275L9.32963 14.295C9.21413 14.2335 9.08588 14.2005 8.95463 14.1968H8.75138C8.68087 14.2073 8.61188 14.2297 8.54888 14.2642L5.22637 16.005C5.06212 16.0875 4.87612 16.1168 4.69387 16.0875C4.24987 16.0035 3.95362 15.5805 4.02637 15.1343L4.69387 11.4443C4.73812 11.175 4.64887 10.9012 4.45462 10.71L1.74637 8.085C1.51987 7.86525 1.44112 7.53525 1.54462 7.2375C1.64512 6.9405 1.90162 6.72375 2.21137 6.675L5.93887 6.13425C6.22237 6.105 6.47137 5.9325 6.59888 5.6775L8.24137 2.31C8.28038 2.235 8.33063 2.166 8.39138 2.1075L8.45887 2.055C8.49412 2.016 8.53463 1.98375 8.57963 1.9575L8.66138 1.9275L8.78888 1.875H9.10462C9.38662 1.90425 9.63488 2.073 9.76462 2.325L11.4289 5.6775C11.5489 5.92275 11.7821 6.093 12.0514 6.13425L15.7789 6.675C16.0939 6.72 16.3571 6.9375 16.4614 7.2375C16.5596 7.53825 16.4749 7.86825 16.2439 8.085L13.4389 10.74Z" fill="#F8CD10"/>
</svg>
