<svg width="18" height="18" viewBox="0 0 18 18" fill="none" xmlns="http://www.w3.org/2000/svg">
<path fill-rule="evenodd" clip-rule="evenodd" d="M9 1.5C4.85759 1.5 1.5 4.85759 1.5 9C1.5 13.1424 4.85759 16.5 9 16.5C13.1424 16.5 16.5 13.1424 16.5 9C16.5 4.85759 13.1424 1.5 9 1.5ZM9 2.625C12.5211 2.625 15.375 5.47891 15.375 9C15.375 12.5211 12.5211 15.375 9 15.375C5.47891 15.375 2.625 12.5211 2.625 9C2.625 5.47891 5.47891 2.625 9 2.625ZM9.30357 5.80844C9.26633 5.53388 9.03098 5.32227 8.74621 5.32227C8.43555 5.32227 8.18371 5.57411 8.18371 5.88477V9.52002L8.18998 9.60382C8.21482 9.76886 8.31221 9.9161 8.45803 10.0031L11.2855 11.6898L11.3537 11.7245C11.6086 11.8332 11.9109 11.7395 12.0568 11.4949L12.0915 11.4268C12.2001 11.1719 12.1064 10.8696 11.8619 10.7237L9.30841 9.19984L9.30871 5.88477L9.30357 5.80844Z" fill="#606870"/>
</svg>
