<svg width="20" height="20" viewBox="0 0 20 20" fill="none" xmlns="http://www.w3.org/2000/svg">
<g clip-path="url(#clip0_97_1408)">
<path d="M17.0312 3.18831C13.788 3.18831 10.4269 0.182021 10.3936 0.151904C10.1702 -0.0506348 9.82973 -0.0506348 9.60637 0.151904C9.57289 0.182256 6.22062 3.18831 2.96875 3.18831C2.64516 3.18831 2.38281 3.45065 2.38281 3.77425V10.7914C2.38281 16.4759 6.61078 18.7474 9.79102 19.9615C9.85832 19.9872 9.92914 20 10 20C10.0709 20 10.1417 19.9871 10.209 19.9615C13.3892 18.7474 17.6172 16.4758 17.6172 10.7914V3.77425C17.6172 3.45065 17.3548 3.18831 17.0312 3.18831ZM16.4453 10.7914C16.4453 15.5873 13.0468 17.5934 10 18.7859C6.9532 17.5934 3.55469 15.5873 3.55469 10.7914V4.33401C6.37621 4.08722 9.02187 2.1494 10 1.35417C10.9781 2.14937 13.6238 4.08718 16.4453 4.33401V10.7914ZM8.38723 9.3164C8.15844 9.08757 7.78742 9.08757 7.55859 9.3164C7.32977 9.54523 7.32977 9.9162 7.55859 10.145L8.99973 11.5862C9.11414 11.7006 9.2641 11.7578 9.41406 11.7578C9.56402 11.7578 9.71398 11.7006 9.82836 11.5862L12.8125 8.24217C13.0413 8.01334 13.0413 7.64236 12.8125 7.41354C12.5837 7.18471 12.2127 7.18471 11.9839 7.41354L9.41406 10.3432L8.38723 9.3164Z" fill="#505050"/>
</g>
<defs>
<clipPath id="clip0_97_1408">
<rect width="20" height="20" fill="white"/>
</clipPath>
</defs>
</svg>
