<svg width="20" height="20" viewBox="0 0 20 20" fill="none" xmlns="http://www.w3.org/2000/svg">
<path fill-rule="evenodd" clip-rule="evenodd" d="M11.9635 1.6736C11.7776 1.64695 11.5909 1.70191 11.4423 1.82017C11.2896 1.94008 11.1942 2.1133 11.1734 2.30733C11.1295 2.69956 11.4125 3.05432 11.8042 3.09846C14.5056 3.39991 16.6053 5.5043 16.909 8.21411C16.9497 8.57719 17.2543 8.85117 17.6178 8.85117C17.6451 8.85117 17.6717 8.8495 17.6991 8.84617C17.8891 8.82536 18.0584 8.73125 18.178 8.58136C18.2966 8.43146 18.3506 8.24492 18.329 8.05422C17.9506 4.67321 15.3338 2.04918 11.9635 1.6736ZM12.0154 4.57526C11.6187 4.50198 11.2544 4.75514 11.1788 5.14237C11.1033 5.52961 11.3573 5.90768 11.7432 5.98346C12.9051 6.20997 13.8022 7.10936 14.0296 8.27522V8.27605C14.0943 8.61166 14.3898 8.85566 14.7301 8.85566C14.7757 8.85566 14.8213 8.85149 14.8678 8.84316C15.2537 8.76572 15.5077 8.38848 15.4322 8.00041C15.0927 6.25911 13.7524 4.9142 12.0154 4.57526ZM13.3337 12.5758C13.7099 12.3589 14.1349 12.1138 14.6709 12.2279C15.1564 12.3303 16.8113 13.6735 17.2644 14.1391C17.5615 14.4438 17.7266 14.7586 17.7524 15.0734C17.7972 16.3084 16.1191 17.7183 15.8137 17.894C15.4079 18.1863 14.9356 18.3337 14.4053 18.3337C13.8634 18.3337 13.2592 18.1796 12.6002 17.8723C9.02496 16.38 3.56327 11.0262 2.11921 7.47863C1.52001 6.15787 1.51586 5.06862 2.10925 4.25001C2.34578 3.86611 3.69439 2.26138 4.90192 2.31218C5.2231 2.33966 5.53515 2.50454 5.84139 2.80434C6.30449 3.25819 7.6141 4.91789 7.71535 5.40505C7.82739 5.94635 7.58173 6.37688 7.36346 6.75496C7.31691 6.83623 7.25418 6.93268 7.18546 7.03834C6.92466 7.43937 6.57753 7.97313 6.70036 8.31389C7.5809 10.4757 9.61503 12.3619 11.7778 13.248C12.1123 13.3696 12.6457 13.0199 13.0455 12.758C13.1496 12.6897 13.2447 12.6274 13.3248 12.581L13.3337 12.5758Z" fill="#595959"/>
</svg>
