<svg width="20" height="20" viewBox="0 0 20 20" fill="none" xmlns="http://www.w3.org/2000/svg">
<path d="M7.61248 17.311V14.7629C7.61248 14.1124 8.14364 13.5851 8.79886 13.5851H11.194C11.5087 13.5851 11.8104 13.7092 12.0329 13.9301C12.2554 14.1509 12.3804 14.4505 12.3804 14.7629V17.311C12.3784 17.5814 12.4852 17.8414 12.6771 18.0333C12.8691 18.2252 13.1302 18.3332 13.4026 18.3332H15.0367C15.7999 18.3351 16.5325 18.0355 17.0728 17.5005C17.6132 16.9655 17.9168 16.239 17.9168 15.4814V8.22222C17.9168 7.61022 17.6436 7.02971 17.1707 6.63706L11.6118 2.22973C10.6449 1.45697 9.25942 1.48192 8.32132 2.28899L2.88934 6.63706C2.39411 7.01813 2.09812 7.60037 2.0835 8.22222V15.474C2.0835 17.053 3.37298 18.3332 4.96364 18.3332H6.5604C7.12618 18.3332 7.58599 17.88 7.59009 17.3184L7.61248 17.311Z" fill="#049CD6"/>
</svg>
