<svg width="28" height="28" viewBox="0 0 28 28" fill="none" xmlns="http://www.w3.org/2000/svg">
<path fill-rule="evenodd" clip-rule="evenodd" d="M17.141 0.677077C16.8435 0.63444 16.5448 0.722379 16.3071 0.911583C16.0627 1.10345 15.91 1.38059 15.8768 1.69105C15.8065 2.31862 16.2593 2.88623 16.886 2.95684C21.2082 3.43918 24.5677 6.8062 25.0537 11.1419C25.1188 11.7228 25.6061 12.1612 26.1877 12.1612C26.2316 12.1612 26.274 12.1585 26.3179 12.1532C26.622 12.1199 26.8928 11.9693 27.084 11.7295C27.2739 11.4896 27.3602 11.1912 27.3257 10.8861C26.7202 5.47645 22.5334 1.278 17.141 0.677077ZM17.224 5.31977C16.5892 5.20251 16.0063 5.60757 15.8855 6.22714C15.7646 6.84672 16.171 7.45164 16.7884 7.57289C18.6474 7.9353 20.0829 9.37432 20.4467 11.2397V11.241C20.5503 11.778 21.023 12.1684 21.5674 12.1684C21.6405 12.1684 21.7135 12.1617 21.7878 12.1484C22.4053 12.0245 22.8116 11.4209 22.6908 10.8C22.1477 8.01392 20.0032 5.86206 17.224 5.31977ZM19.3333 18.1206C19.9352 17.7735 20.6151 17.3815 21.4727 17.5639C22.2495 17.7278 24.8973 19.877 25.6223 20.6218C26.0977 21.1094 26.362 21.6131 26.4031 22.1167C26.4748 24.0927 23.7899 26.3485 23.3012 26.6296C22.6519 27.0973 21.8963 27.3332 21.0478 27.3332C20.1807 27.3332 19.214 27.0867 18.1597 26.595C12.4392 24.2073 3.70054 15.6412 1.39005 9.9651C0.43133 7.85188 0.424691 6.10908 1.37412 4.79931C1.75256 4.18507 3.91035 1.6175 5.8424 1.69878C6.35628 1.74275 6.85556 2.00657 7.34554 2.48624C8.08649 3.2124 10.1819 5.86791 10.3439 6.64738C10.5231 7.51345 10.1301 8.20231 9.78086 8.80723C9.70637 8.93727 9.60601 9.09158 9.49606 9.26064C9.07877 9.90228 8.52336 10.7563 8.71989 11.3015C10.1288 14.7605 13.3834 17.7784 16.8438 19.1961C17.3789 19.3906 18.2325 18.8312 18.872 18.4121C19.0387 18.3029 19.1908 18.2032 19.3189 18.1288L19.3333 18.1206Z" fill="white"/>
</svg>
