<svg width="17" height="20" viewBox="0 0 17 20" fill="none" xmlns="http://www.w3.org/2000/svg">
<path fill-rule="evenodd" clip-rule="evenodd" d="M0 8.31776C0 3.71789 3.84388 0 8.49345 0C13.1561 0 17 3.71789 17 8.31776C17 10.6357 16.157 12.7876 14.7695 14.6116C13.2388 16.6235 11.3522 18.3765 9.22854 19.7524C8.74251 20.0704 8.30387 20.0944 7.77045 19.7524C5.63474 18.3765 3.74809 16.6235 2.2305 14.6116C0.841983 12.7876 0 10.6357 0 8.31776ZM5.69445 8.57668C5.69445 10.1176 6.95187 11.3296 8.49366 11.3296C10.0365 11.3296 11.306 10.1176 11.306 8.57668C11.306 7.04772 10.0365 5.77676 8.49366 5.77676C6.95187 5.77676 5.69445 7.04772 5.69445 8.57668Z" fill="#595959"/>
</svg>
