<svg width="20" height="20" viewBox="0 0 20 20" fill="none" xmlns="http://www.w3.org/2000/svg">
<path d="M15.1384 11.983C14.5786 11.8626 14.1358 12.1225 13.7437 12.3494C13.3422 12.5833 12.5786 13.2027 12.141 13.0442C9.90025 12.1216 7.79279 10.1604 6.88051 7.91064C6.71972 7.46364 7.33622 6.69525 7.56837 6.28897C7.79365 5.89568 8.04816 5.44868 7.93209 4.88474C7.82718 4.37797 6.47036 2.65148 5.99058 2.17936C5.67416 1.8675 5.35 1.69598 5.01724 1.66826C3.76618 1.61455 2.36895 3.28386 2.12389 3.68322C1.50997 4.53476 1.51341 5.66785 2.13421 7.04176C3.63033 10.7321 9.28891 16.3014 12.9931 17.8537C13.6767 18.1734 14.3018 18.3337 14.8632 18.3337C15.4127 18.3337 15.9019 18.1803 16.3224 17.8763C16.6396 17.6935 18.3774 16.2269 18.3318 14.9422C18.3043 14.6147 18.1332 14.2873 17.8254 13.9702C17.3567 13.486 15.6414 12.0887 15.1384 11.983Z" fill="#595959"/>
</svg>
