<svg width="180" height="48" viewBox="0 0 180 48" fill="none" xmlns="http://www.w3.org/2000/svg">
<path fill-rule="evenodd" clip-rule="evenodd" d="M54.7978 33.2007H55.7293L58.0715 37.4859H57.2464L56.6875 36.4212H53.813L53.254 37.4859H52.5088L54.7978 33.2007ZM56.3681 35.8091L55.2769 33.7064L54.159 35.8091H56.3681ZM59.5088 37.4859V33.2007H62.9157C63.0754 33.2007 63.2084 33.2007 63.3149 33.2273C63.3948 33.2539 63.5012 33.2805 63.5811 33.3338C63.7141 33.4136 63.794 33.4935 63.8206 33.6266C63.8738 33.733 63.9005 33.9193 63.9005 34.1589V34.9307C63.9005 35.0904 63.9005 35.1969 63.8738 35.2767C63.8738 35.3566 63.8472 35.4364 63.8206 35.4897C63.7674 35.6228 63.6609 35.7292 63.5278 35.7824C63.3948 35.8357 63.2084 35.8623 62.9423 35.8623H62.543L64.2997 37.4859H63.2883L61.6115 35.8623H60.2807V37.4859H59.5088ZM62.6761 35.2501C62.8624 35.2501 62.9955 35.2235 63.0487 35.1437C63.1286 35.0904 63.1552 34.9574 63.1552 34.771V34.3718C63.1552 34.1855 63.1286 34.0524 63.0487 33.9992C62.9689 33.9193 62.8624 33.8927 62.6761 33.8927H60.2274V35.2501H62.6761ZM69.9689 34.771V33.8661H66.6153V36.7939H69.9689V35.8091L70.6875 35.9688V36.5277C70.6875 36.714 70.6609 36.8471 70.6343 36.9802C70.6077 37.1133 70.5545 37.1931 70.4746 37.2729C70.3948 37.3528 70.3149 37.406 70.1818 37.4326C70.0488 37.4593 69.9157 37.4859 69.756 37.4859H66.8548C66.6685 37.4859 66.5354 37.4593 66.4024 37.4326C66.2959 37.406 66.1894 37.3528 66.1096 37.2729C66.0297 37.1931 65.9765 37.1133 65.9499 36.9802C65.9233 36.8471 65.8967 36.714 65.8967 36.5277V34.1323C65.8967 33.7862 65.9765 33.5467 66.1096 33.4136C66.2427 33.2805 66.4822 33.2007 66.8282 33.2007H69.7294C70.0754 33.2007 70.3149 33.2805 70.448 33.4136C70.5811 33.5467 70.6609 33.7862 70.6609 34.1323V34.6113L69.9689 34.771ZM72.7636 33.2007H73.4822V34.9307H76.8358V33.2007H77.5545V37.4859H76.8358V35.5695H73.4822V37.4859H72.7636V33.2007ZM79.7104 33.2007H80.429V37.4859H79.7104V33.2007ZM84.8207 37.4859H84.102V33.8661H82.1324V33.2007H86.7636V33.8661H84.7941V37.4859H84.8207ZM88.4671 33.2007H92.5659V33.8661H89.1857V34.984H91.2617V35.6228H89.1857V36.8205H92.6192V37.4859H88.4671V33.2007ZM98.5812 34.771V33.8661H95.2275V36.7939H98.5812V35.8091L99.2998 35.9688V36.5277C99.2998 36.714 99.2732 36.8471 99.2466 36.9802C99.2199 37.1133 99.1667 37.1931 99.0869 37.2729C99.007 37.3528 98.9272 37.406 98.7941 37.4326C98.661 37.4593 98.5279 37.4859 98.3682 37.4859H95.4671C95.2808 37.4859 95.1477 37.4593 95.0146 37.4326C94.9081 37.406 94.8017 37.3528 94.7218 37.2729C94.642 37.1931 94.5887 37.1133 94.5621 36.9802C94.5355 36.8471 94.5089 36.714 94.5089 36.5277V34.1323C94.5089 33.7862 94.5887 33.5467 94.7218 33.4136C94.8549 33.2805 95.0945 33.2007 95.4405 33.2007H98.3416C98.6876 33.2007 98.9272 33.2805 99.0602 33.4136C99.1933 33.5467 99.2732 33.7862 99.2732 34.1323V34.6113L98.5812 34.771ZM103.612 37.4859H102.893V33.8661H100.923V33.2007H105.555V33.8661H103.585V37.4859H103.612ZM107.923 36.8205H111.064V33.2007H111.783V36.5277C111.783 36.714 111.756 36.8471 111.729 36.9802C111.703 37.1133 111.65 37.1931 111.57 37.2729C111.49 37.3528 111.41 37.406 111.277 37.4326C111.144 37.4593 111.011 37.4859 110.825 37.4859H108.163C107.977 37.4859 107.844 37.4593 107.71 37.4326C107.577 37.406 107.498 37.3528 107.418 37.2729C107.338 37.1931 107.285 37.1133 107.258 36.9802C107.231 36.8471 107.205 36.714 107.205 36.5277V33.2007H107.923V36.8205ZM113.912 37.4859V33.2007H117.319C117.479 33.2007 117.612 33.2007 117.718 33.2273C117.798 33.2539 117.904 33.2805 117.984 33.3338C118.117 33.4136 118.197 33.4935 118.224 33.6266C118.277 33.733 118.304 33.9193 118.304 34.1589V34.9307C118.304 35.0904 118.304 35.1969 118.277 35.2767C118.277 35.3566 118.25 35.4364 118.224 35.4897C118.171 35.6228 118.064 35.7292 117.931 35.7824C117.798 35.8357 117.612 35.8623 117.345 35.8623H116.946L118.703 37.4859H117.691L116.015 35.8623H114.684V37.4859H113.912ZM117.053 35.2501C117.239 35.2501 117.372 35.2235 117.425 35.1437C117.505 35.0904 117.532 34.9574 117.532 34.771V34.3718C117.532 34.1855 117.505 34.0524 117.425 33.9992C117.345 33.9193 117.239 33.8927 117.053 33.8927H114.604V35.2501H117.053ZM120.38 33.2007H124.479V33.8661H121.098V34.984H123.174V35.6228H121.098V36.8205H124.532V37.4859H120.38V33.2007ZM131.718 35.8357L132.57 35.0106L133.129 35.4631L132.277 36.2882L133.741 37.4859H132.65L131.771 36.7672L131.319 37.1931C131.266 37.2463 131.186 37.2996 131.159 37.3528C131.106 37.3794 131.053 37.406 130.999 37.4326C130.946 37.4593 130.866 37.4593 130.813 37.4593C130.733 37.4593 130.653 37.4593 130.547 37.4593H129.083C128.897 37.4593 128.764 37.4326 128.631 37.406C128.524 37.3794 128.418 37.3262 128.338 37.2463C128.258 37.1665 128.205 37.0866 128.178 36.9536C128.152 36.8205 128.125 36.6874 128.125 36.5011V36.1551C128.125 35.9954 128.152 35.8623 128.205 35.7558C128.231 35.7026 128.258 35.6494 128.311 35.5961C128.338 35.5695 128.391 35.5429 128.444 35.4897C128.498 35.4364 128.551 35.4098 128.604 35.3566L129.429 34.8243C129.403 34.7977 129.376 34.771 129.349 34.7444C129.323 34.7178 129.296 34.6912 129.269 34.6646C129.19 34.5847 129.136 34.5049 129.11 34.425C129.083 34.3718 129.083 34.2653 129.083 34.1855V34.0258C129.083 33.8661 129.11 33.733 129.136 33.6266C129.163 33.5201 129.216 33.4136 129.296 33.3604C129.376 33.2805 129.482 33.2539 129.589 33.2007C129.722 33.1741 129.855 33.1475 130.041 33.1475H130.92C131.079 33.1475 131.212 33.1475 131.292 33.1741C131.399 33.2007 131.479 33.2273 131.558 33.2805C131.665 33.3604 131.745 33.4402 131.798 33.5733C131.851 33.6798 131.878 33.8661 131.878 34.1056V34.2653L131.159 34.425V33.8661H129.775V34.2653L131.718 35.8357ZM128.923 36.022C128.897 36.0486 128.87 36.0752 128.844 36.1018C128.844 36.1285 128.817 36.1817 128.817 36.2615V36.5543C128.817 36.6608 128.844 36.714 128.87 36.7672C128.897 36.7939 128.977 36.8205 129.083 36.8205H130.547C130.6 36.8205 130.627 36.8205 130.627 36.8205C130.653 36.8205 130.68 36.8205 130.707 36.7939C130.733 36.7939 130.76 36.7672 130.787 36.714L131.186 36.3148L129.988 35.33L128.923 36.022ZM137.148 33.2007H137.866V37.4859H137.148V33.2007ZM140.022 33.2007H140.528L144.148 36.4212V33.2007H144.866V37.4859H144.361L140.741 34.2653V37.4859H140.022V33.2007ZM149.258 37.4859H148.539V33.8661H146.57V33.2007H151.201V33.8661H149.231V37.4859H149.258ZM152.904 33.2007H157.003V33.8661H153.623V34.984H155.699V35.6228H153.623V36.8205H157.057V37.4859H152.904V33.2007ZM159.053 37.4859V33.2007H162.46C162.619 33.2007 162.752 33.2007 162.859 33.2273C162.939 33.2539 163.045 33.2805 163.125 33.3338C163.258 33.4136 163.338 33.4935 163.365 33.6266C163.418 33.733 163.444 33.9193 163.444 34.1589V34.9307C163.444 35.0904 163.444 35.1969 163.418 35.2767C163.418 35.3566 163.391 35.4364 163.365 35.4897C163.311 35.6228 163.205 35.7292 163.072 35.7824C162.939 35.8357 162.752 35.8623 162.486 35.8623H162.087L163.844 37.4859H162.832L161.155 35.8623H159.825V37.4859H159.053ZM162.22 35.2501C162.406 35.2501 162.539 35.2235 162.593 35.1437C162.673 35.0904 162.699 34.9574 162.699 34.771V34.3718C162.699 34.1855 162.673 34.0524 162.593 33.9992C162.513 33.9193 162.406 33.8927 162.22 33.8927H159.771V35.2501H162.22ZM165.547 33.2007H166.266V37.4859H165.547V33.2007ZM173.133 36.5277C173.133 36.714 173.106 36.8471 173.079 36.9802C173.053 37.1133 173 37.1931 172.92 37.2729C172.84 37.3528 172.76 37.406 172.627 37.4326C172.494 37.4593 172.361 37.4859 172.201 37.4859H169.3C169.114 37.4859 168.981 37.4593 168.848 37.4326C168.741 37.406 168.635 37.3528 168.555 37.2729C168.475 37.1931 168.422 37.1133 168.395 36.9802C168.368 36.8471 168.342 36.714 168.342 36.5277V34.1323C168.342 33.7862 168.422 33.5467 168.555 33.4136C168.688 33.2805 168.927 33.2007 169.273 33.2007H172.175C172.521 33.2007 172.76 33.2805 172.893 33.4136C173.026 33.5467 173.106 33.7862 173.106 34.1323V36.5277H173.133ZM172.414 36.8205V33.8927H169.06V36.8205H172.414ZM175.209 37.4859V33.2007H178.616C178.775 33.2007 178.908 33.2007 179.015 33.2273C179.095 33.2539 179.201 33.2805 179.281 33.3338C179.414 33.4136 179.494 33.4935 179.521 33.6266C179.574 33.733 179.6 33.9193 179.6 34.1589V34.9307C179.6 35.0904 179.6 35.1969 179.574 35.2767C179.574 35.3566 179.547 35.4364 179.521 35.4897C179.467 35.6228 179.361 35.7292 179.228 35.7824C179.095 35.8357 178.908 35.8623 178.642 35.8623H178.243L180 37.4859H178.988L177.311 35.8623H175.981V37.4859H175.209ZM178.349 35.2501C178.536 35.2501 178.669 35.2235 178.722 35.1437C178.802 35.0904 178.829 34.9574 178.829 34.771V34.3718C178.829 34.1855 178.802 34.0524 178.722 33.9992C178.642 33.9193 178.536 33.8927 178.349 33.8927H175.901V35.2501H178.349Z" fill="#06A7E0"/>
<path d="M46.9467 23.627C47.0033 10.6913 36.5627 0.15904 23.627 0.102458C10.6913 0.0458764 0.159033 10.4864 0.102451 23.4221C0.0458688 36.3578 10.4864 46.8901 23.4221 46.9467C36.3578 47.0033 46.8901 36.5627 46.9467 23.627Z" fill="#171351"/>
<path fill-rule="evenodd" clip-rule="evenodd" d="M16.2046 43.4216C14.927 42.836 13.5962 42.1706 12.3719 41.452V14.6762L23.4175 8.31501L25.3871 9.43288C25.3339 21.1439 25.3605 32.8816 25.3605 44.6193C24.1362 44.6991 22.8586 44.6991 21.581 44.6725V13.6382L16.2046 16.912C16.2046 25.7485 16.2046 34.585 16.2046 43.4216ZM23.524 2.40625C11.8928 2.40625 2.4707 11.8283 2.4707 23.4595C2.4707 30.1668 5.6114 36.1288 10.4821 39.9881V35.144C7.68745 32.0565 5.98402 27.9576 5.98402 23.4595C5.98402 13.7713 13.8358 5.94618 23.4974 5.94618C33.1856 5.94618 41.0107 13.7979 41.0107 23.4595C41.0107 28.9158 38.5088 33.8132 34.5963 37.0071L34.543 14.623L27.2769 10.5241V14.9158L30.7636 16.9652L30.8168 43.3151C32.0944 42.836 33.3187 42.1706 34.5963 41.4786V41.3189C40.5583 37.5927 44.5507 30.9919 44.5507 23.4329C44.5773 11.8283 35.1552 2.40625 23.524 2.40625Z" fill="white"/>
<path fill-rule="evenodd" clip-rule="evenodd" d="M71.9925 12.9726V27.2122H68.6655V17.4441L62.6236 25.5088H61.9582L55.8365 17.4441V27.2122H52.5361V12.9726H56.3156L62.597 21.2236L68.7985 12.9726H71.9925ZM74.2814 12.9726H77.5818V27.2122H74.2814V12.9726ZM79.8974 12.9726H82.4792L93.9773 22.6609V12.9726H97.2777V27.2122H94.6959L83.1978 17.5506V27.2122H79.8974V12.9726ZM99.6199 12.9726H102.92V18.2958H113.221V12.9726H116.521V27.2122H113.221V21.3035H102.894V27.2122H99.5933V12.9726H99.6199ZM128.126 21.0639V24.0715H135.871C136.829 24.0715 137.495 23.8852 137.867 23.486C138.24 23.0867 138.426 22.3947 138.426 21.4099V18.8548C138.426 17.87 138.24 17.178 137.867 16.7787C137.495 16.3795 136.829 16.1932 135.871 16.1932H128.126V18.6418H134.247V21.0905H128.126V21.0639ZM124.799 18.6152V12.9726H135.658C136.164 12.9726 136.616 12.9992 137.015 13.0259C137.415 13.0525 137.761 13.1057 138.08 13.1589C138.399 13.2388 138.692 13.3186 138.932 13.4251C139.198 13.5316 139.438 13.6646 139.677 13.8243C140.396 14.2768 140.928 14.9156 141.247 15.7673C141.567 16.619 141.726 17.7103 141.726 19.0943V21.1171C141.726 21.9422 141.673 22.6343 141.593 23.1932C141.514 23.7521 141.354 24.2578 141.114 24.7369C140.795 25.4289 140.316 25.9879 139.677 26.3871C139.438 26.5468 139.171 26.6799 138.932 26.7864C138.666 26.8928 138.373 26.9727 138.08 27.0525C137.761 27.1057 137.415 27.159 137.015 27.1856C136.616 27.2122 136.164 27.2388 135.658 27.2388H124.799V21.0639H122.936V18.6152H124.799ZM152.772 7.59619H155.753L151.92 11.216H149.951L152.772 7.59619ZM159.666 15.1551L161.609 12.3072V10.1247H158.894V12.5468H159.879L159.666 12.9726H156.339V24.0449H146.89V12.9726H143.59V24.0715C143.59 24.6571 143.643 25.1362 143.749 25.5354C143.856 25.9346 144.042 26.254 144.282 26.4936C144.521 26.7331 144.841 26.9194 145.24 27.0259C145.639 27.1324 146.145 27.1856 146.704 27.1856H156.498C157.057 27.1856 157.563 27.1324 157.962 27.0259C158.362 26.9194 158.681 26.7331 158.92 26.4936C159.16 26.254 159.346 25.9346 159.453 25.5354C159.559 25.1362 159.612 24.6305 159.612 24.0715V15.1551H159.666ZM175.183 18.4023V16.1666H164.856V24.0715H175.183V21.4898L178.483 22.2084V24.0715C178.483 24.6571 178.43 25.1362 178.324 25.5354C178.217 25.9346 178.031 26.254 177.791 26.4936C177.552 26.7331 177.232 26.9194 176.833 27.0259C176.434 27.1324 175.928 27.1856 175.369 27.1856H164.696C164.111 27.1856 163.631 27.1324 163.232 27.0259C162.833 26.9194 162.514 26.7331 162.274 26.4936C162.035 26.254 161.848 25.9346 161.742 25.5354C161.635 25.1362 161.582 24.6305 161.582 24.0715V16.1133C161.582 14.9688 161.822 14.1437 162.274 13.6913C162.727 13.2122 163.552 12.9992 164.696 12.9992H175.369C175.955 12.9992 176.434 13.0525 176.833 13.1589C177.232 13.2654 177.552 13.4517 177.791 13.6913C178.031 13.9308 178.217 14.2502 178.324 14.6494C178.43 15.0487 178.483 15.5544 178.483 16.1133V17.6837L175.183 18.4023Z" fill="#06A7E0"/>
</svg>
