<svg width="20" height="20" viewBox="0 0 20 20" fill="none" xmlns="http://www.w3.org/2000/svg">
<g clip-path="url(#clip0_21:449)">
<path d="M14.7835 11.8229C14.5308 10.4868 13.9197 9.31227 13.0518 8.27447C12.5443 7.66753 11.9974 7.09373 11.4878 6.48887C11.1523 6.08907 10.8809 5.64578 10.7297 5.13827C10.4728 4.27861 10.4894 3.40238 10.5909 2.52408C10.6158 2.29829 10.5847 2.12429 10.39 2C10.3175 2 10.245 2 10.1704 2C10.1372 2.0145 10.1062 2.029 10.071 2.04143C8.82808 2.44951 7.93321 3.25945 7.35734 4.42361C6.80219 5.55049 6.72347 6.73744 6.97619 7.95132C7.22062 9.13206 7.77992 10.1636 8.54843 11.0834C9.16573 11.8229 9.80374 12.5438 10.3175 13.3641C10.6965 13.9669 10.9472 14.6111 10.9969 15.332C11.0487 16.0777 10.9389 16.8048 10.7877 17.5298C10.7173 17.8674 10.9078 18.0621 11.2413 17.9814C12.4614 17.6872 13.3977 16.9891 14.0668 15.9451C14.8788 14.6774 15.059 13.2791 14.7835 11.8229Z" fill="#F8CD10"/>
<path d="M7.16055 12.8004C6.8229 12.4048 6.66961 11.9511 6.69654 11.4332C6.69654 11.3504 6.69654 11.2675 6.69654 11.1826C6.69654 10.8532 6.44382 10.6979 6.15796 10.8553C5.54687 11.193 5.17194 11.7087 5.04558 12.3944C4.90679 13.1484 5.08494 13.8465 5.50752 14.4742C5.74781 14.8325 6.04195 15.1515 6.30296 15.4954C6.52875 15.7937 6.75247 16.0961 6.84361 16.471C6.92647 16.8108 6.91197 17.1546 6.85397 17.4944C6.79804 17.8341 7.0839 18.035 7.39876 17.8693C8.16935 17.4674 8.58571 16.8294 8.66443 15.9739C8.73486 15.2157 8.51943 14.5259 8.08442 13.9149C7.80684 13.5234 7.47541 13.1671 7.16055 12.8004Z" fill="#F8CD10"/>
</g>
<defs>
<clipPath id="clip0_21:449">
<rect width="9.90368" height="16" fill="white" transform="translate(5 2)"/>
</clipPath>
</defs>
</svg>
