<svg width="24" height="10" viewBox="0 0 24 10" fill="none" xmlns="http://www.w3.org/2000/svg">
<path d="M12.49 3.27199V2.82199H13.837V9.14399H13.067C12.9146 9.14426 12.7683 9.0841 12.6601 8.9767C12.552 8.8693 12.4908 8.72341 12.49 8.57099V8.57199C11.9277 8.98358 11.2488 9.20499 10.552 9.20399C9.68138 9.20399 8.84638 8.85828 8.23057 8.24284C7.61476 7.6274 7.26853 6.79262 7.268 5.92199C7.26853 5.05137 7.61476 4.21658 8.23057 3.60115C8.84638 2.98571 9.68138 2.63999 10.552 2.63999C11.2485 2.63921 11.927 2.8606 12.489 3.27199H12.49ZM6.919 0.789993V0.994993C6.919 1.37699 6.868 1.68899 6.619 2.05499L6.589 2.08899C6.50604 2.18202 6.42535 2.27705 6.347 2.37399L2.024 7.79999H6.919V8.56799C6.919 8.64372 6.90407 8.7187 6.87506 8.78865C6.84605 8.8586 6.80353 8.92214 6.74994 8.97564C6.69635 9.02914 6.63273 9.07155 6.56273 9.10044C6.49273 9.12932 6.41773 9.14412 6.342 9.14399H0V8.78199C0 8.33899 0.11 8.14099 0.25 7.93499L4.857 2.22999H0.192V0.789993H6.92H6.919ZM15.47 9.14399C15.3427 9.14399 15.2206 9.09342 15.1306 9.0034C15.0406 8.91339 14.99 8.7913 14.99 8.66399V0.789993H16.431V9.14399H15.47ZM20.693 2.59999C21.1272 2.59986 21.5571 2.68524 21.9582 2.85126C22.3594 3.01729 22.7239 3.26069 23.031 3.56759C23.3381 3.87449 23.5817 4.23887 23.748 4.63992C23.9142 5.04097 23.9999 5.47084 24 5.90499C24.0001 6.33914 23.9147 6.76907 23.7487 7.17022C23.5827 7.57137 23.3393 7.9359 23.0324 8.24298C22.7255 8.55006 22.3611 8.79369 21.9601 8.95996C21.559 9.12622 21.1292 9.21186 20.695 9.21199C19.8182 9.21226 18.9772 8.8642 18.357 8.2444C17.7368 7.62459 17.3883 6.7838 17.388 5.90699C17.3877 5.03019 17.7358 4.18919 18.3556 3.56901C18.9754 2.94882 19.8162 2.60026 20.693 2.59999ZM10.553 7.85299C10.8103 7.85885 11.0663 7.81322 11.3057 7.71878C11.5452 7.62435 11.7634 7.48301 11.9475 7.30308C12.1315 7.12314 12.2778 6.90823 12.3777 6.67098C12.4775 6.43372 12.529 6.17891 12.529 5.92149C12.529 5.66408 12.4775 5.40926 12.3777 5.17201C12.2778 4.93475 12.1315 4.71985 11.9475 4.53991C11.7634 4.35998 11.5452 4.21864 11.3057 4.1242C11.0663 4.02977 10.8103 3.98414 10.553 3.98999C10.0483 4.00148 9.56822 4.21002 9.21537 4.57099C8.86251 4.93197 8.66495 5.41671 8.66495 5.92149C8.66495 6.42628 8.86251 6.91102 9.21537 7.27199C9.56822 7.63297 10.0483 7.84151 10.553 7.85299ZM20.693 7.84999C21.2088 7.84999 21.7036 7.64507 22.0683 7.28032C22.4331 6.91556 22.638 6.42084 22.638 5.90499C22.638 5.38915 22.4331 4.89443 22.0683 4.52967C21.7036 4.16491 21.2088 3.95999 20.693 3.95999C20.1772 3.95999 19.6824 4.16491 19.3177 4.52967C18.9529 4.89443 18.748 5.38915 18.748 5.90499C18.748 6.42084 18.9529 6.91556 19.3177 7.28032C19.6824 7.64507 20.1772 7.84999 20.693 7.84999Z" fill="white"/>
</svg>
